<svg width="24" height="20" viewBox="0 0 24 20" fill="none" xmlns="http://www.w3.org/2000/svg">
<path d="M5.34545 19.891C3.70909 19.891 2.4 19.2916 1.41818 18.0926C0.472727 16.8574 0 15.4042 0 13.733C0 12.3524 0.254545 11.0627 0.763636 9.86376C1.27273 8.66485 1.90909 7.57493 2.67273 6.59401C3.47273 5.61308 4.30909 4.75931 5.18182 4.0327C6.09091 3.26975 6.92727 2.63397 7.69091 2.12534C8.45455 1.58038 9.07273 1.18074 9.54545 0.926431C10.0545 0.672116 10.2909 0.544959 10.2545 0.544959L11.5091 2.23433C11.1818 2.37965 10.7455 2.6703 10.2 3.10627C9.65455 3.5059 9.10909 3.99637 8.56364 4.57766C8.05455 5.15895 7.6 5.79473 7.2 6.48501C6.8 7.13896 6.6 7.77475 6.6 8.39237C6.6 8.75568 6.81818 9.11898 7.25455 9.48229C7.69091 9.80926 8.16364 10.2089 8.67273 10.6812C9.18182 11.1172 9.65455 11.6621 10.0909 12.3161C10.5273 12.9337 10.7455 13.6966 10.7455 14.6049C10.7455 15.4042 10.5818 16.1308 10.2545 16.7847C9.96364 17.4387 9.56364 18.0018 9.05455 18.4741C8.58182 18.9101 8.01818 19.2552 7.36364 19.5095C6.70909 19.7639 6.03636 19.891 5.34545 19.891ZM18.7636 20C17.9273 20 17.1636 19.8183 16.4727 19.455C15.7818 19.0917 15.1818 18.6013 14.6727 17.9837C14.1636 17.366 13.7636 16.6576 13.4727 15.8583C13.2182 15.0227 13.0909 14.1326 13.0909 13.188C13.0909 11.2988 13.4909 9.55495 14.2909 7.9564C15.1273 6.32153 16.0364 4.9228 17.0182 3.76022C18.1818 2.37965 19.5091 1.12625 21 0L22.5818 1.47139C22.2545 1.68937 21.8545 2.03451 21.3818 2.50681C20.9455 2.97911 20.5273 3.54223 20.1273 4.19619C19.7636 4.81381 19.4364 5.46776 19.1455 6.15804C18.8909 6.84832 18.7636 7.52044 18.7636 8.17439C18.7636 8.61035 19.0364 8.97366 19.5818 9.26431C20.1273 9.55495 20.7273 9.91826 21.3818 10.3542C22.0364 10.7902 22.6364 11.3533 23.1818 12.0436C23.7273 12.6975 24 13.624 24 14.8229C24 15.5495 23.8545 16.2216 23.5636 16.8392C23.2727 17.4569 22.8727 18.0018 22.3636 18.4741C21.8909 18.9464 21.3273 19.3279 20.6727 19.6185C20.0545 19.8728 19.4182 20 18.7636 20Z" fill="#FF815C"/>
</svg>
