<svg id="Layer_1" data-name="Layer 1" xmlns="http://www.w3.org/2000/svg" viewBox="0 0 161.93 34.24"><title>logo</title><path d="M207.56,62.53c-2.18,0-3.73,1.27-3.73,3.09s1.2,2.71,3.5,3.42c2,.62,2.56,1.13,2.56,2.28,0,1.43-1.15,2.11-2.54,2.11a4.53,4.53,0,0,1-3.09-1.2l-.91,1a5.53,5.53,0,0,0,4,1.53c2.66,0,4.23-1.44,4.23-3.5,0-2.27-1.61-3-3.5-3.59-2.13-.65-2.59-1.13-2.59-2.13s.95-1.68,2.13-1.68a4.07,4.07,0,0,1,2.7,1l.89-1a5,5,0,0,0-3.66-1.37m-7.45.21H197.9l-2.37,8.61L193,62.73h-2.2l-1,11.83h1.55l.4-5.22c.14-1.73.22-3.57.22-5l2.7,8.85h1.53l2.56-8.83c0,1,.14,3,.29,4.83l.41,5.34h1.58Zm-12.84,0h-6.41V74.57h6.54v-1.3H182.5V69.21h4V67.9h-4V64h4.59Zm-8.75,0h-8.45v1.39h3.37V74.57h1.63V64.13h3.28Zm-13.72-.21c-2.18,0-3.73,1.27-3.73,3.09s1.2,2.71,3.5,3.42c2,.62,2.56,1.13,2.56,2.28,0,1.43-1.15,2.11-2.54,2.11a4.53,4.53,0,0,1-3.09-1.2l-.91,1a5.53,5.53,0,0,0,4,1.53c2.66,0,4.23-1.44,4.23-3.5,0-2.27-1.61-3-3.5-3.59-2.13-.65-2.59-1.13-2.59-2.13s.95-1.68,2.13-1.68a4.06,4.06,0,0,1,2.7,1l.89-1A5,5,0,0,0,164.81,62.53Zm-4.49.21h-1.7l-2.89,5.86-2.89-5.86H151l3.81,7.3v4.53h1.65V70Zm-14.2-.21c-2.18,0-3.73,1.27-3.73,3.09s1.2,2.71,3.5,3.42c2,.62,2.56,1.13,2.56,2.28,0,1.43-1.15,2.11-2.54,2.11a4.53,4.53,0,0,1-3.09-1.2l-.91,1a5.53,5.53,0,0,0,4,1.53c2.66,0,4.23-1.44,4.23-3.5,0-2.27-1.61-3-3.5-3.59-2.13-.65-2.59-1.13-2.59-2.13s.95-1.68,2.13-1.68a4.07,4.07,0,0,1,2.7,1l.89-1A5,5,0,0,0,146.12,62.53Zm-8.9.1h-9.31v2.42h3v9.51h3.18V65.05h2.82ZM122,69.86l1.08-5,1.08,5Zm3.19,4.71h3.37l-3.54-11.94h-3.81L117.7,74.57H121l.53-2.44h3.16Zm-8.07-11.94h-7.57V74.57h7.52V72.32h-4.35V69.6h3.56V67.42h-3.56V64.88h4.07Zm-9,0h-7.33V74.57H104V70h3.37V67.75H104V64.88h3.83Z" transform="translate(-49.66 -49.07)" style="fill:#ff815c"/><path d="M77.33,56.39c-.39-.17-.91-.22-1.3-.39,0,.43.5,1,.46,1.21s-.68.66-.71,1.09c.43-.17,1,0,1.39-.15a4.33,4.33,0,0,0,.87,1,6.94,6.94,0,0,0,.34-1.22c.49,0,.8-.27,1.3-.31-.09-.28-.64-.47-1.13-.77V55.62C78.14,55.71,77.84,56.08,77.33,56.39Zm-1-3a4.66,4.66,0,0,0-1-.16c.81,1.36.26.72,0,1.69a3.34,3.34,0,0,1,.95-.15c.43,0,.33.49.87.61,0-.45.09-.53.09-.92.42-.09.5-.27,1-.31V54a3.16,3.16,0,0,1-.84-.33,1.35,1.35,0,0,1-.21-.89A1.54,1.54,0,0,0,76.37,53.39Zm-2.85,2.08h-1a7.61,7.61,0,0,1,.54.66c.06.17-.21.58-.28.87,1.09-.22.69-.42,1.3,0,.21.15.17.17.43.23v-.85a5,5,0,0,1,.79-.39v-.16c-.86-.06-1.06-.34-1.13-1.07A3.43,3.43,0,0,0,73.52,55.46ZM70,56.32c-.25-.19,0-.14-.39-.2A2.55,2.55,0,0,1,69.3,58a15.81,15.81,0,0,0-.58,1.85,14.86,14.86,0,0,1-.59,1.83c-.26.36-.07-.16-.23.35a2.93,2.93,0,0,1-.48,1.32c-.48-.4-.07-.07,0-.57s-.33,0-.22-.91c-.84-.11-.81-.66-.9-.9a2.22,2.22,0,0,0-2,.5c-.3.26-.17.39-.53.45A1.6,1.6,0,0,0,65,63.69c-.45.48-.92,0-1.44,1.53a14.35,14.35,0,0,0-.75,2.34l.49.06-.63,2a2.44,2.44,0,0,0-.42,2L62.47,73l.25,0c0-.37,0-.43.07-1.28l0,.1.09.16c.11.16,0,.1.22.18a2.74,2.74,0,0,0-.06-.74c-.25-1.2-.38-.44.65-2.27.69-1.22.16-1.51.77-1.6.07.6.06.35-.21,1.11.18.16.07.11.31.19-.09.65-.43.47-.6,1.09s-.17.94-.32,1.44a18,18,0,0,0-.76,2.79,7.48,7.48,0,0,1-.09,1.17c-.22.81-.53,1.35-.81,2.11a6.42,6.42,0,0,0-.36,1.11c0,.36.44.44.43.61,0,.42-.31.47-.38,1.1,0,.28.06.35,0,.59s-.84.73,0,1.31a2,2,0,0,0,.77.27c.43-.62.21-.72.43-1.48.12-.45.22-.17.16-.64a2,2,0,0,1,0-.81,2,2,0,0,0,.52-.11c-.07-1.87.6-.51,1.17-3,.22-.92.75-2.26.84-2.9l.09.51c0,.24,0,.47,0,.64,0,3.12-.73,2.82-.89,4.25,0,.14.34.3.45.38-.27.3-.1.23-.27.49s-.18.09-.42.31c-.39.34,0,.68,0,1.06-.06.58-.66,1.79.53,1.91.77.09,0-1.35,1.13-2.62L66,80.13c.31-.06.27-.07.38-.38.52.06.52.27.82-.82s.41-1.94.6-2.9l.52-3c0-.35.11-.32.16-.71a5.61,5.61,0,0,0,.11-2.12c-.33-1.77-.25-1.17.09-3.19.09-.48.31-1.1.36-1.58a4.88,4.88,0,0,1,.42-2.3c.38-1.12-.27-.39.18-2.32.11-.52.16-1.2.23-1.53.25-1-.11-.74.54-1.34.39-.37.18-.69,1.06-.8l-.06-.1c-.16-.31-.11.06,0-.16l0,0v0c0-.19.38-.12-.66-.15.47-.31.54,0,.64-.5a5.67,5.67,0,0,1-.59.1,1.06,1.06,0,0,0-.53.26c.06-.48.32-.79.21-1.11A1.51,1.51,0,0,0,70,56.32Zm.92.59,0,0Zm2.43,26.4h.91V61H87.17v3.92H78.94v5.81H86.6v3.92H78.94v8.67h1c3.06,0,5.56-.08,6.85-.17,5.58-.45,6.09-4.25,6.16-4.38s0-17.56.07-24.57c0-3.88-2.34-4.94-4.46-5.12l-2,0a10.21,10.21,0,0,0-1.3.24l-27.1,3.9c-3.3.31-4.27,4.22-4.27,4.22s-3.11,16.71-4.13,21.14l0,.19-.06,1.58c.44,2.66,3.79,2.67,3.79,2.67S63.94,83.26,73.32,83.31Z" transform="translate(-49.66 -49.07)" style="fill:#ff815c;fill-rule:evenodd"/></svg>