<svg id="Layer_1" data-name="Layer 1" xmlns="http://www.w3.org/2000/svg" viewBox="0 0 229.8 291.11"><title>unnecessary-costs</title><path d="M401.78,496c-2.1-1.37-4-2.87-4-5.74a5.67,5.67,0,0,1,5.92-5.61c5.4-.08,10.8,0,16.2,0,30.63,0,55-20.12,60.53-50.26a56.07,56.07,0,0,0-9.4-43.56c-17.08-24.34-34.6-48.37-51.94-72.53a11.16,11.16,0,0,0-.86-.93c-5.64,8-8,16.18-3.61,25.55a33.86,33.86,0,0,1,3.49,11.52c.57,7.93-5,14.63-12.71,16.63a17.07,17.07,0,0,1-19.25-8.57c-9-16.7-10.88-33.84-3.39-51.62a4.29,4.29,0,0,0,.11-1c-.89-.06-1.7-.16-2.51-.16-11.65,0-23.31,0-35,0a4.52,4.52,0,0,0-4.2,2.15c-18.45,25.81-37.1,51.47-55.44,77.36-25.25,35.64-6.62,84.45,36,93.9,7.47,1.66,15.42,1.14,23.16,1.56,2.17.12,4.36,0,6.54,0,3.37,0,5.54,1.51,6.3,4.22.72,2.54-.38,4.83-3.15,6.61a5.76,5.76,0,0,0-.62.54H328.43c-3.79-.75-7.61-1.36-11.37-2.26-33.93-8.11-57.53-42-53.65-76.64a73.32,73.32,0,0,1,13.64-35.33q25.4-35.28,50.72-70.62c.6-.84,1.18-1.69,1.88-2.71-7.36-4-11.58-9.89-10.88-18.39s5.65-13.53,13.59-16.28c-.48-1.06-.88-2-1.33-2.9l-23.28-47.39c-2.44-5-1.95-6.9,2.54-10A36.32,36.32,0,0,1,356,217.08c3.53,3.43,6.73,7.19,10.13,10.76,3.68,3.87,8.4,4.71,12.61,2.31,4.06-2.31,5.75-6.71,4.52-11.78-.9-3.73-.1-5.65,3.16-7.62,17.46-10.53,44.79-6.4,58.36,8.77,2.22,2.49,2.17,5,.77,7.83q-10.67,21.8-21.2,43.66c-.4.83-.76,1.68-1.22,2.7,8.26,2.79,13.37,8.09,13.89,16.88.45,7.68-2.8,12.86-10.84,17.83.55.83,1.07,1.67,1.65,2.48q25.43,35.44,50.85,70.88c20.87,29.24,18.33,67-6.28,92.44a69.76,69.76,0,0,1-43.19,21.29,13.29,13.29,0,0,0-1.88.5ZM319.54,221.08a4.12,4.12,0,0,0,.17.72c8.13,16.56,16.23,33.14,24.47,49.65a4.05,4.05,0,0,0,3.1,1.59c20.28.09,40.56,0,60.83.11a3.44,3.44,0,0,0,3.65-2.29c6-12.47,12-24.88,18-37.31L434,225c-8-7.95-23.22-11-35.32-7.41-2.43.73-4.15,1.48-3.6,4.54a9.77,9.77,0,0,1-.46,3.92c-2,8.11-7,13.55-15.11,15.79s-15,.13-20.86-5.65c-3.43-3.4-6.52-7.13-9.92-10.57A24.65,24.65,0,0,0,319.54,221.08Zm58.35,77h20.18c7,0,14,.07,21-.07a6.49,6.49,0,0,0,6.61-6.43,6.64,6.64,0,0,0-6-7,22.51,22.51,0,0,0-3.12-.14q-38.66,0-77.33,0a19.62,19.62,0,0,0-4,.3,6.52,6.52,0,0,0-5.22,6.54c0,4.14,2.91,6.76,7.74,6.78C351.17,298.15,364.53,298.12,377.89,298.12ZM409,309.86a5.69,5.69,0,0,0-1-.33c-3.12,0-6.25.07-9.36-.07a3.36,3.36,0,0,0-3.54,2.08c-8.29,15.52-6.9,30.73,1.36,45.72a5.61,5.61,0,0,0,10.07-4.87c-.82-2.21-1.94-4.31-2.85-6.48a32.1,32.1,0,0,1,1-28.18C406.07,315.13,407.54,312.61,409,309.86Z" transform="translate(-263 -204.89)" style="fill:#ff825c"/><path d="M374.84,417.73a8.3,8.3,0,0,1-.85-.64L344.86,388a2.37,2.37,0,0,1-.88-2.26,2.13,2.13,0,0,1,3.44-1.21,7.44,7.44,0,0,1,.61.59l29.32,29.32.54.51.62-.59,29.41-29.42a2.36,2.36,0,0,1,2.13-.86,2.13,2.13,0,0,1,1.31,3.44,7.39,7.39,0,0,1-.63.67l-29,29a9.76,9.76,0,0,1-.84.65,7.87,7.87,0,0,1,.82.61l29.18,29.16a2.35,2.35,0,0,1,.87,2.13,2.13,2.13,0,0,1-3.49,1.29c-.22-.18-.41-.39-.61-.59L378.55,421.2a8.2,8.2,0,0,1-.56-.7l-.72.69L348,450.51a2.51,2.51,0,0,1-2,1,2.13,2.13,0,0,1-1.58-3.44,5.72,5.72,0,0,1,.58-.62l29-29C374.22,418.2,374.46,418,374.84,417.73Z" transform="translate(-263 -204.89)" style="fill:#a5a5a5"/></svg>