<svg id="Layer_1" data-name="Layer 1" xmlns="http://www.w3.org/2000/svg" viewBox="0 0 383.99 309.63"><title>fast</title><path d="M208.5,354.5c1.86-4.17,5.08-5.61,9.59-5.56,15.71.16,31.43.06,47.14.07a22.66,22.66,0,0,1,3,.13A7.37,7.37,0,0,1,269,363.6a22.44,22.44,0,0,1-4.82.39c-15,0-29.93-.1-44.89.09-4.6.06-8.26-1.05-10.75-5.07Z" transform="translate(-208.5 -246.08)" style="fill:#ff825c"/><path d="M208.5,443.75c2.09-1.76,3.92-4.29,6.33-5.1,3.64-1.22,7,1.15,8.21,4.68a7.44,7.44,0,0,1-13,6.88c-.53-.65-1-1.31-1.57-2Z" transform="translate(-208.5 -246.08)" style="fill:#ff825c"/><path d="M308,438.25c0-9-.7-17.41.13-25.67,2.65-26.39,12.95-49.91,28.85-70.91,21.9-28.91,49.93-49.52,84.92-59.8,29.73-8.73,59.38-8.82,87.58,5.46,31,15.7,48.36,41.67,52.1,76,4.24,38.84-9,72.65-33.18,102.32-24.71,30.33-56.1,50.61-94.92,57.86-31.3,5.85-61,1.79-87.42-17.43-16.91-12.31-28.24-28.78-34.22-48.81-1-3.28-2.4-4.41-5.71-4.08s-6.49.12-9.74.17a8.47,8.47,0,0,0-1.63.76c3,7.9,5.32,16.22,9.13,23.81,18.31,36.48,48.47,56.74,88.53,61.71,43,5.35,81.25-7.88,115.38-33.51,31.82-23.89,54.18-54.72,64.62-93.46C581,381,579.4,350.06,564,320.56c-3-5.83-7-11.2-10.75-16.65-3.13-4.57-3.08-8.8.51-11.62s8-1.95,11.33,2.38C586.16,321.94,595,353,591.86,387c-5.74,61.82-38,107.46-89,140.68-27.68,18-58.3,28-91.53,28-50.62,0-90.77-19.82-117.25-64.17a115.47,115.47,0,0,1-13.44-35.18c-.54-2.5-1.56-3.21-4-3.17-8,.13-16,.05-24,0a25,25,0,0,1-3.74-.18c-4.16-.64-6.82-3.79-6.64-7.72a7.17,7.17,0,0,1,7.34-7c7.87-.16,15.75-.07,23.62-.08h4.29c-2.78-55.09,18.4-100.06,56.71-138.92h-4.7q-33.75,0-67.5,0a28.19,28.19,0,0,1-4.86-.26,7.34,7.34,0,0,1-.36-14.32,24.78,24.78,0,0,1,5.21-.4c28.75,0,57.5,0,86.25-.1a11.8,11.8,0,0,0,6.5-2c25.31-18.41,53.22-30.51,84.31-34.7,22.58-3,44.86-1.48,66.63,5.7,3.16,1,5.71,2.64,6.46,6.09,1.26,5.83-3.93,10.09-10.08,8.56-8.1-2-16.18-4.43-24.41-5.55A139.56,139.56,0,0,0,406,271.41c-51.58,20.72-87.7,56.79-106.27,109.6a137.85,137.85,0,0,0-7.23,53.88c.14,2.55.9,3.54,3.53,3.4C299.72,438.1,303.45,438.25,308,438.25Zm237.67-44.74c10.43-54.4-26.66-100.9-79.36-101.76-.31,1.27-.64,2.59-1,3.91s-.56,2.69-.94,4c-1.24,4.32-4.72,6.71-8.62,6-4.16-.79-6.5-4.3-5.92-9,.19-1.57.52-3.12.8-4.73-52,2.42-109.18,48.61-123.18,101.58,1.43,0,2.79,0,4.15,0,4.54.17,7.84,3.23,7.94,7.33s-3.29,7.51-8,7.65c-2.58.08-5.17,0-8.73,0-.12,9-.18,17.57-.36,26.14-.06,3,1.3,3.72,4.12,3.67,10-.15,20-.09,30,0,5.62,0,8.93,2.77,9,7.32s-3.37,7.59-9.14,7.65c-5,.05-10,0-15,0h-15a14.69,14.69,0,0,0,.25,1.59c.29,1,.57,1.92.94,2.84C340.94,490.5,366,507,400.51,510.43c8.09.8,8.12.49,10.05-7.21.12-.48.25-1,.41-1.44,1.29-4,4.92-6.19,8.67-5.37s6.21,4.18,5.81,8.38c-.15,1.56-.46,3.1-.76,5.08,31-4.58,56.85-18.4,79-39.44,18.12-17.17,31.35-37.5,38.78-61.95-2,0-3.35.06-4.71,0-4.6-.23-7.64-3.27-7.61-7.56s3.11-7.24,7.76-7.4C540.55,393.44,543.16,393.51,545.71,393.51Z" transform="translate(-208.5 -246.08)" style="fill:#ff825c"/><path d="M255.43,506.5c6.11,0,12.22-.06,18.32,0,5.28.06,8.42,2.9,8.42,7.42s-3.14,7.48-8.4,7.52q-18.51.14-37,0c-5.19,0-8.5-3.12-8.51-7.5s3.31-7.38,8.49-7.44C243,506.45,249.19,506.5,255.43,506.5Z" transform="translate(-208.5 -246.08)" style="fill:#ff825c"/><path d="M542.42,276.32a7.36,7.36,0,0,1-7.1,7.63A7.46,7.46,0,1,1,535,269,7.34,7.34,0,0,1,542.42,276.32Z" transform="translate(-208.5 -246.08)" style="fill:#ff825c"/><path d="M457.42,332.19c-1.18,5.54-2.45,11.64-3.77,17.74-3.7,17.07-7.36,34.15-11.23,51.18a11.67,11.67,0,0,1-3.36,6c-9.5,8.11-19.19,16-28.9,23.85-4.09,3.3-9.2,2.47-11.63-1.63-2-3.43-1.15-7.19,2.52-10.23,8.18-6.77,16.46-13.41,24.54-20.3a10.16,10.16,0,0,0,3.14-5.15c4.46-20,8.72-40,13.06-60a28.92,28.92,0,0,1,1.37-5,7.15,7.15,0,0,1,8.29-4.22C454.84,325.06,457.35,328.09,457.42,332.19Z" transform="translate(-208.5 -246.08)" style="fill:#a5a5a5"/></svg>