<svg id="Layer_1" data-name="Layer 1" xmlns="http://www.w3.org/2000/svg" viewBox="0 0 157.89 160.94"><title>no-time</title><path d="M381.28,303c2.84.4,5.7.69,8.52,1.22,21.63,4.07,38.6,15.33,50.8,33.59a74.64,74.64,0,0,1,12.62,43.65,75.59,75.59,0,0,1-6.3,29c-.2.47-.4.95-.62,1.47a29.51,29.51,0,0,1,8.85,11.89,29.16,29.16,0,0,1-49.89,29.06,1.87,1.87,0,0,0-2.57-.72c-44.21,16.15-92.55-11-101.79-57.08a77,77,0,0,1,58-90c3.71-.86,7.54-1.18,11.31-1.76.46-.07.92-.18,1.37-.27Zm17.2,132.13c-.17.06-.57.17-1,.31a58.09,58.09,0,0,1-29.31,3.36c-15.92-2.29-28.94-9.73-38.81-22.42s-13.76-27-12.22-42.83c.2-2.06,1.55-3.38,3.3-3.24s2.79,1.65,2.77,3.84a96.57,96.57,0,0,0,.19,12.69c4.36,35.48,42.55,56.59,75.07,41.56a3,3,0,0,0,1.43-1.61c3.51-11,10.86-17.85,22-20.66a2.37,2.37,0,0,0,1.38-1,51.53,51.53,0,0,0,6.27-22.48c.65-14.17-3.55-26.82-12.88-37.5-12.09-13.85-27.53-19.81-45.82-18.32a51.64,51.64,0,0,0-21.75,7.08,4.82,4.82,0,0,1-2.64.63,2.59,2.59,0,0,1-2.37-2.36,3.16,3.16,0,0,1,1.87-3.45,58.25,58.25,0,0,1,41.28-7.21,59.28,59.28,0,0,1,45.53,76.66c-.79,2.46-1.81,4.85-2.72,7.29,1.9.37,3.77.62,5.58,1.1s3.54,1.21,5.3,1.83c11.43-24.17,8.11-60.47-20.09-83.4-27.4-22.28-67-20.91-92.52,2.8a70.71,70.71,0,0,0-10.48,92.1c20.81,30.14,57.2,36.66,82.89,26.29Zm52.71-.38a23.14,23.14,0,1,0-23.09,23.11A23.17,23.17,0,0,0,451.19,434.76Z" transform="translate(-299.39 -303.02)" style="fill:#ff825c"/><path d="M379.38,363.84c0,5.08,0,10.15,0,15.23a4.56,4.56,0,0,1-1.4,3.51q-10.8,10.74-21.55,21.53c-1,1-2,1.66-3.49,1.19a3,3,0,0,1-1.11-5.16c2.92-3,5.91-5.93,8.87-8.89,3.85-3.85,7.73-7.67,11.51-11.58a3.88,3.88,0,0,0,1-2.43c.07-9.26,0-18.53,0-27.79,0-.52,0-1,0-1.57a3,3,0,1,1,6.06.11c0,3.3,0,6.59,0,9.89Q379.38,360.85,379.38,363.84Z" transform="translate(-299.39 -303.02)" style="fill:#a5a5a5"/><path d="M336.66,343.45a14.06,14.06,0,0,1-.95,1.79c-1.76,2.53-3.6,5-5.35,7.53-1.21,1.74-2.87,2.28-4.41,1.31a3,3,0,0,1-.75-4.52c1.93-2.85,4-5.63,6-8.39a2.81,2.81,0,0,1,3.53-.89C336,340.78,336.57,341.81,336.66,343.45Z" transform="translate(-299.39 -303.02)" style="fill:#a5a5a5"/><path d="M428.33,431c2.3-2.33,4.41-4.51,6.56-6.64a3.08,3.08,0,0,1,4.37-.31c1.38,1.24,1.4,3.08-.06,4.58-2.12,2.17-4.3,4.28-6.6,6.55,2.19,2.19,4.37,4.22,6.36,6.41a4.19,4.19,0,0,1,1.18,2.86,3.37,3.37,0,0,1-1.87,2.36,3.82,3.82,0,0,1-3.11-.63c-2-1.63-3.68-3.56-5.5-5.37-.4-.4-.82-.78-1.4-1.33L422.84,445c-.44.45-.87.91-1.35,1.31a3,3,0,0,1-4.24-.15,3,3,0,0,1,0-4.13c1.72-1.84,3.52-3.59,5.32-5.35a17.71,17.71,0,0,1,1.72-1.31c-2.37-2.35-4.45-4.41-6.52-6.48-1.59-1.59-1.76-3.38-.49-4.7s3.16-1.21,4.81.44C424.12,426.7,426.12,428.77,428.33,431Z" transform="translate(-299.39 -303.02)" style="fill:#a5a5a5"/></svg>