<svg id="Layer_1" data-name="Layer 1" xmlns="http://www.w3.org/2000/svg" viewBox="0 0 199.49 199.43"><title>attractive-conditions</title><path d="M570.45,397.16a53.59,53.59,0,0,1-6-4.44c-6.42-6.24-12.68-12.63-19.1-19.07-11.32,7-23.32,8.86-36,4.75A40.38,40.38,0,0,1,487,360.64a41.54,41.54,0,1,1,70.18,1.22c.36.4.72.84,1.13,1.24,5.92,5.92,11.9,11.78,17.72,17.8a57.35,57.35,0,0,1,4.57,6.13v3.51a9.79,9.79,0,0,1-6.62,6.62ZM497.53,339a24.92,24.92,0,1,0,24.81-24.92A25,25,0,0,0,497.53,339Z" transform="translate(-381.09 -197.73)" style="fill:#a5a5a5"/><path d="M437.63,397.16c-4.93-1.69-6.7-5.18-6.68-10.31.12-29.59.05-59.18.06-88.78,0-6.36,5.47-10.5,11.11-8.43a8,8,0,0,1,5.44,7,21.25,21.25,0,0,1,.09,2.72c0,29.07-.06,58.15.06,87.22,0,5.14-1.6,8.8-6.58,10.61Z" transform="translate(-381.09 -197.73)" style="fill:#ff825c"/><path d="M540.85,197.73c5,1.82,6.61,5.48,6.58,10.62-.13,25.12-.06,50.24-.06,75.35V286l-16.65-5v-1.89c0-23.69.07-47.38-.06-71.07,0-5.13,1.77-8.61,6.68-10.31Z" transform="translate(-381.09 -197.73)" style="fill:#ff825c"/><path d="M387.77,397.16c-4.92-1.69-6.72-5.17-6.68-10.3.15-18.61,0-37.23.07-55.85,0-6.31,5.95-10.38,11.54-7.94,3.64,1.59,5.1,4.58,5.1,8.42q0,16.93,0,33.86c0,7.07-.16,14.15.05,21.21.15,5.14-1.6,8.79-6.58,10.6Z" transform="translate(-381.09 -197.73)" style="fill:#ff825c"/><path d="M480.87,298c0-.63,0-1.05,0-1.48q0-24.32,0-48.63c0-6.22,5.84-10.34,11.37-8a8,8,0,0,1,5.23,7.73c.08,12.58,0,25.16,0,37.74a2.31,2.31,0,0,1-1,1.58c-2.67,1.7-5.51,3.16-8.09,5S483.54,295.84,480.87,298Z" transform="translate(-381.09 -197.73)" style="fill:#ff825c"/></svg>